<mxfile host="Electron" modified="2023-06-21T03:22:40.481Z" agent="Mozilla/5.0 (Windows NT 10.0; Win64; x64) AppleWebKit/537.36 (KHTML, like Gecko) draw.io/21.2.1 Chrome/112.0.5615.87 Electron/24.1.2 Safari/537.36" etag="_lgA1tsdOmL3KaVDNT1p" version="21.2.1" type="device">
  <diagram id="C5RBs43oDa-KdzZeNtuy" name="Page-1">
    <mxGraphModel dx="1050" dy="629" grid="1" gridSize="10" guides="1" tooltips="1" connect="1" arrows="1" fold="1" page="1" pageScale="1" pageWidth="827" pageHeight="1169" math="0" shadow="0">
      <root>
        <mxCell id="WIyWlLk6GJQsqaUBKTNV-0" />
        <mxCell id="WIyWlLk6GJQsqaUBKTNV-1" parent="WIyWlLk6GJQsqaUBKTNV-0" />
        <mxCell id="t7YejrAykJ8eL_MnhxdB-8" style="edgeStyle=orthogonalEdgeStyle;rounded=0;orthogonalLoop=1;jettySize=auto;html=1;exitX=0.5;exitY=1;exitDx=0;exitDy=0;entryX=0.5;entryY=0;entryDx=0;entryDy=0;" parent="WIyWlLk6GJQsqaUBKTNV-1" edge="1">
          <mxGeometry relative="1" as="geometry">
            <mxPoint x="110" y="160" as="sourcePoint" />
            <mxPoint x="110" y="190" as="targetPoint" />
          </mxGeometry>
        </mxCell>
        <mxCell id="t7YejrAykJ8eL_MnhxdB-2" value="" style="endArrow=classic;html=1;rounded=0;exitX=0.5;exitY=1;exitDx=0;exitDy=0;entryX=0.5;entryY=0;entryDx=0;entryDy=0;exitPerimeter=0;" parent="WIyWlLk6GJQsqaUBKTNV-1" source="t7YejrAykJ8eL_MnhxdB-4" edge="1">
          <mxGeometry width="50" height="50" relative="1" as="geometry">
            <mxPoint x="110" y="90" as="sourcePoint" />
            <mxPoint x="110" y="110" as="targetPoint" />
          </mxGeometry>
        </mxCell>
        <mxCell id="t7YejrAykJ8eL_MnhxdB-4" value="START" style="strokeWidth=2;html=1;shape=mxgraph.flowchart.start_1;whiteSpace=wrap;" parent="WIyWlLk6GJQsqaUBKTNV-1" vertex="1">
          <mxGeometry x="60" y="10" width="100" height="60" as="geometry" />
        </mxCell>
        <mxCell id="KxQiWkvKKRalKYwUsXda-4" style="edgeStyle=orthogonalEdgeStyle;rounded=0;orthogonalLoop=1;jettySize=auto;html=1;exitX=0.5;exitY=1;exitDx=0;exitDy=0;" edge="1" parent="WIyWlLk6GJQsqaUBKTNV-1" source="KxQiWkvKKRalKYwUsXda-1" target="KxQiWkvKKRalKYwUsXda-3">
          <mxGeometry relative="1" as="geometry" />
        </mxCell>
        <mxCell id="KxQiWkvKKRalKYwUsXda-1" value="Retroreflectie Sensor and Vision Sensor Detecting Raw Material Enters" style="rounded=1;whiteSpace=wrap;html=1;absoluteArcSize=1;" vertex="1" parent="WIyWlLk6GJQsqaUBKTNV-1">
          <mxGeometry x="55" y="190" width="110" height="80" as="geometry" />
        </mxCell>
        <mxCell id="KxQiWkvKKRalKYwUsXda-6" style="edgeStyle=orthogonalEdgeStyle;rounded=0;orthogonalLoop=1;jettySize=auto;html=1;exitX=1;exitY=0.5;exitDx=0;exitDy=0;entryX=0;entryY=0.5;entryDx=0;entryDy=0;" edge="1" parent="WIyWlLk6GJQsqaUBKTNV-1" source="KxQiWkvKKRalKYwUsXda-3" target="KxQiWkvKKRalKYwUsXda-5">
          <mxGeometry relative="1" as="geometry" />
        </mxCell>
        <mxCell id="KxQiWkvKKRalKYwUsXda-3" value="The internal SCARA robot picks the item up to be inserted into the processing machine" style="rounded=1;whiteSpace=wrap;html=1;" vertex="1" parent="WIyWlLk6GJQsqaUBKTNV-1">
          <mxGeometry x="50" y="310" width="120" height="90" as="geometry" />
        </mxCell>
        <mxCell id="KxQiWkvKKRalKYwUsXda-8" style="edgeStyle=orthogonalEdgeStyle;rounded=0;orthogonalLoop=1;jettySize=auto;html=1;exitX=0.5;exitY=1;exitDx=0;exitDy=0;entryX=0.5;entryY=0;entryDx=0;entryDy=0;" edge="1" parent="WIyWlLk6GJQsqaUBKTNV-1" source="KxQiWkvKKRalKYwUsXda-5" target="KxQiWkvKKRalKYwUsXda-7">
          <mxGeometry relative="1" as="geometry" />
        </mxCell>
        <mxCell id="KxQiWkvKKRalKYwUsXda-5" value="The Machining Center Process Raw Material into a ready material" style="rounded=1;whiteSpace=wrap;html=1;" vertex="1" parent="WIyWlLk6GJQsqaUBKTNV-1">
          <mxGeometry x="240" y="20" width="120" height="60" as="geometry" />
        </mxCell>
        <mxCell id="KxQiWkvKKRalKYwUsXda-10" style="edgeStyle=orthogonalEdgeStyle;rounded=0;orthogonalLoop=1;jettySize=auto;html=1;exitX=0.5;exitY=1;exitDx=0;exitDy=0;entryX=0.5;entryY=0;entryDx=0;entryDy=0;" edge="1" parent="WIyWlLk6GJQsqaUBKTNV-1" source="KxQiWkvKKRalKYwUsXda-7" target="KxQiWkvKKRalKYwUsXda-9">
          <mxGeometry relative="1" as="geometry" />
        </mxCell>
        <mxCell id="KxQiWkvKKRalKYwUsXda-7" value="The SCARA robot picks the item up to be delivered into the Exit" style="rounded=1;whiteSpace=wrap;html=1;" vertex="1" parent="WIyWlLk6GJQsqaUBKTNV-1">
          <mxGeometry x="240" y="120" width="120" height="60" as="geometry" />
        </mxCell>
        <mxCell id="KxQiWkvKKRalKYwUsXda-12" style="edgeStyle=orthogonalEdgeStyle;rounded=0;orthogonalLoop=1;jettySize=auto;html=1;exitX=0.5;exitY=1;exitDx=0;exitDy=0;" edge="1" parent="WIyWlLk6GJQsqaUBKTNV-1" source="KxQiWkvKKRalKYwUsXda-9" target="KxQiWkvKKRalKYwUsXda-11">
          <mxGeometry relative="1" as="geometry" />
        </mxCell>
        <mxCell id="KxQiWkvKKRalKYwUsXda-9" value="The Processed material enter the Exit Conveyor to be then sorted by it&#39;s color" style="rounded=1;whiteSpace=wrap;html=1;" vertex="1" parent="WIyWlLk6GJQsqaUBKTNV-1">
          <mxGeometry x="240" y="220" width="120" height="60" as="geometry" />
        </mxCell>
        <mxCell id="KxQiWkvKKRalKYwUsXda-18" style="edgeStyle=orthogonalEdgeStyle;rounded=0;orthogonalLoop=1;jettySize=auto;html=1;exitX=1;exitY=0.5;exitDx=0;exitDy=0;entryX=-0.003;entryY=0.408;entryDx=0;entryDy=0;entryPerimeter=0;" edge="1" parent="WIyWlLk6GJQsqaUBKTNV-1" source="KxQiWkvKKRalKYwUsXda-11" target="KxQiWkvKKRalKYwUsXda-13">
          <mxGeometry relative="1" as="geometry" />
        </mxCell>
        <mxCell id="KxQiWkvKKRalKYwUsXda-11" value="Vision Sensor detecting the Processed material based on it&#39;s color" style="rounded=1;whiteSpace=wrap;html=1;" vertex="1" parent="WIyWlLk6GJQsqaUBKTNV-1">
          <mxGeometry x="240" y="310" width="120" height="90" as="geometry" />
        </mxCell>
        <mxCell id="KxQiWkvKKRalKYwUsXda-16" style="edgeStyle=orthogonalEdgeStyle;rounded=0;orthogonalLoop=1;jettySize=auto;html=1;exitX=0.5;exitY=1;exitDx=0;exitDy=0;" edge="1" parent="WIyWlLk6GJQsqaUBKTNV-1" source="KxQiWkvKKRalKYwUsXda-13" target="KxQiWkvKKRalKYwUsXda-14">
          <mxGeometry relative="1" as="geometry" />
        </mxCell>
        <mxCell id="KxQiWkvKKRalKYwUsXda-13" value="Processed Material enters the turntable to be loaded and sorted to their respective conveyor" style="rounded=1;whiteSpace=wrap;html=1;" vertex="1" parent="WIyWlLk6GJQsqaUBKTNV-1">
          <mxGeometry x="440" y="10" width="120" height="100" as="geometry" />
        </mxCell>
        <mxCell id="KxQiWkvKKRalKYwUsXda-17" style="edgeStyle=orthogonalEdgeStyle;rounded=0;orthogonalLoop=1;jettySize=auto;html=1;exitX=0.5;exitY=1;exitDx=0;exitDy=0;entryX=0.5;entryY=0;entryDx=0;entryDy=0;entryPerimeter=0;" edge="1" parent="WIyWlLk6GJQsqaUBKTNV-1" source="KxQiWkvKKRalKYwUsXda-14" target="KxQiWkvKKRalKYwUsXda-15">
          <mxGeometry relative="1" as="geometry" />
        </mxCell>
        <mxCell id="KxQiWkvKKRalKYwUsXda-14" value="The Item now get out of the system via their corresponding conveyor belt" style="rounded=1;whiteSpace=wrap;html=1;" vertex="1" parent="WIyWlLk6GJQsqaUBKTNV-1">
          <mxGeometry x="440" y="170" width="120" height="80" as="geometry" />
        </mxCell>
        <mxCell id="KxQiWkvKKRalKYwUsXda-15" value="END" style="strokeWidth=2;html=1;shape=mxgraph.flowchart.start_1;whiteSpace=wrap;" vertex="1" parent="WIyWlLk6GJQsqaUBKTNV-1">
          <mxGeometry x="450" y="325" width="100" height="60" as="geometry" />
        </mxCell>
        <mxCell id="KxQiWkvKKRalKYwUsXda-19" value="Both Entry Conveyor Started" style="rounded=1;whiteSpace=wrap;html=1;" vertex="1" parent="WIyWlLk6GJQsqaUBKTNV-1">
          <mxGeometry x="50" y="110" width="120" height="60" as="geometry" />
        </mxCell>
      </root>
    </mxGraphModel>
  </diagram>
</mxfile>
